<svg xmlns="http://www.w3.org/2000/svg" xmlns:xlink="http://www.w3.org/1999/xlink" width="500" zoomAndPan="magnify" viewBox="0 0 375 374.999991" height="500" preserveAspectRatio="xMidYMid meet" version="1.0"><defs><clipPath id="ad9b324374"><path d="M 0 46 L 375 46 L 375 277.5 L 0 277.5 Z M 0 46 " clip-rule="nonzero"/></clipPath></defs><path fill="#1a73e8" d="M 61.824219 153.527344 L 62.171875 153.527344 C 65.023438 153.632812 67.710938 154.925781 69.570312 157.066406 L 100.132812 192.449219 L 100.132812 87.890625 L 28.746094 87.890625 L 28.746094 182.347656 L 54.574219 156.523438 C 56.5 154.585938 59.078125 153.527344 61.824219 153.527344 Z M 61.824219 153.527344 " fill-opacity="1" fill-rule="nonzero"/><path fill="#1a73e8" d="M 194.398438 198.941406 L 194.398438 150.121094 L 123.011719 150.121094 L 123.011719 218.9375 L 146.601562 246.246094 Z M 194.398438 198.941406 " fill-opacity="1" fill-rule="nonzero"/><path fill="#1a73e8" d="M 288.675781 0.0273438 L 217.289062 0.0273438 L 217.289062 176.296875 L 288.675781 105.65625 Z M 288.675781 0.0273438 " fill-opacity="1" fill-rule="nonzero"/><g clip-path="url(#ad9b324374)"><path fill="#1a73e8" d="M 373.332031 48.285156 C 372.085938 46.859375 370.183594 46.203125 368.3125 46.542969 L 321.148438 55.28125 C 318.226562 55.824219 316.300781 58.632812 316.84375 61.558594 C 317.386719 64.480469 320.1875 66.410156 323.109375 65.867188 L 351.722656 60.570312 L 146.324219 263.820312 L 65.886719 170.703125 C 64.914062 169.570312 63.503906 168.898438 62.015625 168.839844 C 60.515625 168.792969 59.066406 169.359375 58.007812 170.417969 L 0 228.421875 L 0 243.648438 L 61.527344 182.117188 L 141.941406 275.210938 C 142.921875 276.339844 144.316406 277.011719 145.804688 277.066406 C 147.296875 277.117188 148.746094 276.5625 149.804688 275.519531 L 357.90625 69.589844 L 349.40625 95.957031 C 348.488281 98.78125 350.042969 101.816406 352.871094 102.734375 C 353.421875 102.910156 353.980469 102.992188 354.53125 102.992188 C 356.796875 102.992188 358.910156 101.542969 359.648438 99.257812 L 374.410156 53.488281 C 374.996094 51.683594 374.589844 49.707031 373.335938 48.28125 Z M 373.332031 48.285156 " fill-opacity="1" fill-rule="nonzero"/></g></svg>