<svg xmlns="http://www.w3.org/2000/svg" xmlns:xlink="http://www.w3.org/1999/xlink" width="500" zoomAndPan="magnify" viewBox="0 0 375 374.999991" height="500" preserveAspectRatio="xMidYMid meet" version="1.0"><defs><clipPath id="c32a7e6fb9"><path d="M 217 97.851562 L 289 97.851562 L 289 275 L 217 275 Z M 217 97.851562 " clip-rule="nonzero"/></clipPath></defs><path fill="#ffffff" d="M 61.824219 251.378906 L 62.171875 251.378906 C 65.023438 251.484375 67.710938 252.777344 69.570312 254.917969 L 100.132812 290.300781 L 100.132812 185.742188 L 28.746094 185.742188 L 28.746094 280.199219 L 54.574219 254.375 C 56.5 252.4375 59.078125 251.378906 61.824219 251.378906 Z M 61.824219 251.378906 " fill-opacity="1" fill-rule="nonzero"/><path fill="#ffffff" d="M 194.398438 296.792969 L 194.398438 247.972656 L 123.011719 247.972656 L 123.011719 316.789062 L 146.601562 344.09375 Z M 194.398438 296.792969 " fill-opacity="1" fill-rule="nonzero"/><g clip-path="url(#c32a7e6fb9)"><path fill="#ffffff" d="M 288.675781 97.878906 L 217.289062 97.878906 L 217.289062 274.148438 L 288.675781 203.507812 Z M 288.675781 97.878906 " fill-opacity="1" fill-rule="nonzero"/></g><path fill="#ffffff" d="M 373.332031 146.136719 C 372.085938 144.710938 370.183594 144.054688 368.3125 144.394531 L 321.148438 153.132812 C 318.226562 153.675781 316.300781 156.484375 316.84375 159.410156 C 317.386719 162.332031 320.1875 164.261719 323.109375 163.71875 L 351.722656 158.421875 L 146.324219 361.671875 L 65.886719 268.554688 C 64.914062 267.421875 63.503906 266.746094 62.015625 266.691406 C 60.515625 266.644531 59.066406 267.210938 58.007812 268.269531 L 0 326.273438 L 0 341.5 L 61.527344 279.96875 L 141.941406 373.0625 C 142.921875 374.1875 144.316406 374.863281 145.804688 374.917969 C 147.296875 374.964844 148.746094 374.414062 149.804688 373.371094 L 357.90625 167.441406 L 349.40625 193.804688 C 348.488281 196.632812 350.042969 199.667969 352.871094 200.585938 C 353.421875 200.761719 353.980469 200.84375 354.53125 200.84375 C 356.796875 200.84375 358.910156 199.394531 359.648438 197.109375 L 374.410156 151.339844 C 374.996094 149.535156 374.589844 147.558594 373.335938 146.132812 Z M 373.332031 146.136719 " fill-opacity="1" fill-rule="nonzero"/></svg>